<svg version="1.1" xmlns="http://www.w3.org/2000/svg" viewBox="0 0 1059.9696574176567 613.6264973746124" width="1059.9696574176567" height="613.6264973746124">
  <!-- svg-source:excalidraw -->
  
  <defs>
    <style class="style-fonts">
      @font-face {
        font-family: "Virgil";
        src: url("https://excalidraw.com/Virgil.woff2");
      }
      @font-face {
        font-family: "Cascadia";
        src: url("https://excalidraw.com/Cascadia.woff2");
      }
    </style>
    
  </defs>
  <g stroke-linecap="round" transform="translate(58.149472127876834 496.66799698699026) rotate(0 297.2382635081433 53.479250193811055)"><path d="M26.74 0 C218.68 -1.53, 410.6 -1.27, 567.74 0 M26.74 0 C204.58 2.12, 381.9 1.81, 567.74 0 M567.74 0 C583.85 -0.03, 593.83 7.27, 594.48 26.74 M567.74 0 C585.23 -0.72, 593.55 7.83, 594.48 26.74 M594.48 26.74 C594.94 47.03, 593.24 66.61, 594.48 80.22 M594.48 26.74 C595.16 41.23, 595.79 56.2, 594.48 80.22 M594.48 80.22 C595.97 98.18, 584.36 105.72, 567.74 106.96 M594.48 80.22 C595.2 96.68, 584.04 106.03, 567.74 106.96 M567.74 106.96 C454.28 105.82, 341.24 106.1, 26.74 106.96 M567.74 106.96 C367.31 105.47, 166.51 104.69, 26.74 106.96 M26.74 106.96 C8.03 107.74, 0.83 99.77, 0 80.22 M26.74 106.96 C8.64 105.83, 1.49 96.35, 0 80.22 M0 80.22 C1.3 70.28, 0.72 58.78, 0 26.74 M0 80.22 C-0.47 60.19, 1.12 40.74, 0 26.74 M0 26.74 C-0.21 8.99, 8 1.63, 26.74 0 M0 26.74 C0.4 8.85, 9.53 0.01, 26.74 0" stroke="#1e1e1e" stroke-width="2" fill="none"></path></g><g transform="translate(271.3478186438326 537.6472471808013) rotate(0 84.0399169921875 12.5)"><text x="84.0399169921875" y="0" font-family="Virgil, Segoe UI Emoji" font-size="20px" fill="#1e1e1e" text-anchor="middle" style="white-space: pre;" direction="ltr" dominant-baseline="text-before-edge">ResultDispatcher</text></g><g stroke-linecap="round" transform="translate(26.830132235368865 211.24835230620852) rotate(0 76.5255569071661 44.02435513192181)"><path d="M22.01 0 C48.09 0.02, 77.32 -0.14, 131.04 0 M22.01 0 C60.35 -0.21, 96.54 -0.03, 131.04 0 M131.04 0 C146.89 -1.89, 154.09 8.28, 153.05 22.01 M131.04 0 C145.61 0.52, 151.64 5.54, 153.05 22.01 M153.05 22.01 C151.2 32.98, 152.99 47.67, 153.05 66.04 M153.05 22.01 C153.85 38.12, 152.95 55.39, 153.05 66.04 M153.05 66.04 C153.38 80.48, 144.89 89.94, 131.04 88.05 M153.05 66.04 C153.4 80.23, 145.66 90.03, 131.04 88.05 M131.04 88.05 C99.15 87.27, 65.38 87.88, 22.01 88.05 M131.04 88.05 C100.65 88.91, 69.06 89.47, 22.01 88.05 M22.01 88.05 C6.19 88.43, 0.76 79.57, 0 66.04 M22.01 88.05 C7.89 86.89, 1.85 79.11, 0 66.04 M0 66.04 C1.19 50.61, 0.27 32.47, 0 22.01 M0 66.04 C0.38 51.35, -0.53 36.05, 0 22.01 M0 22.01 C-0.24 7.9, 5.73 -1.31, 22.01 0 M0 22.01 C-0.02 7.77, 6.9 -1.99, 22.01 0" stroke="#1e1e1e" stroke-width="2" fill="none"></path></g><g transform="translate(38.36574468452716 242.77270743813034) rotate(0 64.98994445800781 12.5)"><text x="64.98994445800781" y="0" font-family="Virgil, Segoe UI Emoji" font-size="20px" fill="#1e1e1e" text-anchor="middle" style="white-space: pre;" direction="ltr" dominant-baseline="text-before-edge">Simulator 2D</text></g><g stroke-linecap="round" transform="translate(203.2230182337404 209.77102495278834) rotate(0 76.5255569071661 44.02435513192181)"><path d="M22.01 0 C64.89 1.03, 102.88 -1.63, 131.04 0 M22.01 0 C45.55 -0.21, 71.56 0.93, 131.04 0 M131.04 0 C146.18 -0.52, 152.27 7.17, 153.05 22.01 M131.04 0 C143.8 0.1, 153.88 9.34, 153.05 22.01 M153.05 22.01 C154.68 33.79, 153.98 48.31, 153.05 66.04 M153.05 22.01 C153.82 39.05, 152.76 57.58, 153.05 66.04 M153.05 66.04 C153.42 80.04, 146.8 87.68, 131.04 88.05 M153.05 66.04 C155.08 82.78, 143.56 89.39, 131.04 88.05 M131.04 88.05 C108.11 88.89, 83.17 90.11, 22.01 88.05 M131.04 88.05 C93.96 87.93, 58.74 87.18, 22.01 88.05 M22.01 88.05 C7.04 89.14, -0.65 79.86, 0 66.04 M22.01 88.05 C8.49 85.91, -1.08 80.02, 0 66.04 M0 66.04 C0.81 55.23, 0.94 47.42, 0 22.01 M0 66.04 C0.46 48.19, -0.91 30.22, 0 22.01 M0 22.01 C0.73 6.2, 5.6 -0.31, 22.01 0 M0 22.01 C-1.28 6.2, 9.16 0.32, 22.01 0" stroke="#1e1e1e" stroke-width="2" fill="none"></path></g><g transform="translate(215.06862824149243 241.29538008471013) rotate(0 64.67994689941406 12.5)"><text x="64.67994689941406" y="0" font-family="Virgil, Segoe UI Emoji" font-size="20px" fill="#1e1e1e" text-anchor="middle" style="white-space: pre;" direction="ltr" dominant-baseline="text-before-edge">Simulator 3D</text></g><g stroke-linecap="round"><g transform="translate(191.69986487706205 357.79922576549154) rotate(0 -14.371370148171707 87.4333420074672)"><path d="M-0.21 -0.01 C-5 29.2, -23.96 145.91, -28.78 175.11 M0.15 -0.24 C-4.66 28.91, -24.09 145.58, -28.9 174.76" stroke="#1e1e1e" stroke-width="2" fill="none"></path></g><g transform="translate(191.69986487706205 357.79922576549154) rotate(0 -14.371370148171707 87.4333420074672)"><path d="M-34.41 145.27 C-32.84 154.32, -30.83 162.29, -28.9 174.76 M-34.41 145.27 C-32.04 157.23, -30.03 168.95, -28.9 174.76" stroke="#1e1e1e" stroke-width="2" fill="none"></path></g><g transform="translate(191.69986487706205 357.79922576549154) rotate(0 -14.371370148171707 87.4333420074672)"><path d="M-14.16 148.62 C-18.58 156.65, -22.55 163.62, -28.9 174.76 M-14.16 148.62 C-19.85 159.26, -25.88 169.65, -28.9 174.76" stroke="#1e1e1e" stroke-width="2" fill="none"></path></g></g><mask></mask><g stroke-linecap="round"><g transform="translate(189.33614111158977 360.1629495309639) rotate(0 47.17063579199851 -31.788580680878518)"><path d="M1.01 -0.3 C16.62 -10.84, 78.86 -53.04, 94.26 -63.28 M0.08 -1.5 C15.56 -11.9, 78.35 -51.73, 93.78 -62.08" stroke="#1e1e1e" stroke-width="2" fill="none"></path></g></g><mask></mask><g stroke-linecap="round"><g transform="translate(190.5180029943258 360.1629495309639) rotate(0 -48.5929336708997 -30.887033118833834)"><path d="M-0.57 -1.05 C-16.61 -11.13, -81.1 -50.89, -97.35 -60.93 M1.34 1.01 C-14.8 -9.38, -82.34 -52.62, -98.52 -62.78" stroke="#1e1e1e" stroke-width="2" fill="none"></path></g></g><mask></mask><g stroke-linecap="round" transform="translate(405.1707500584289 304.0664990082928) rotate(0 143.67070914447527 30.000000000000007)"><path d="M15 0 C97.21 -2.31, 181.04 -0.07, 272.34 0 M15 0 C108.48 -0.18, 200.74 -0.78, 272.34 0 M272.34 0 C281.79 1.42, 287.82 5.38, 287.34 15 M272.34 0 C280.13 -1.6, 288.49 7, 287.34 15 M287.34 15 C287.11 24.61, 287.12 35.47, 287.34 45 M287.34 15 C288.04 26.17, 286.74 36.92, 287.34 45 M287.34 45 C287.7 54.96, 282.93 58.83, 272.34 60 M287.34 45 C289.19 55.35, 283.48 59.83, 272.34 60 M272.34 60 C183.03 60.57, 93.22 61.98, 15 60 M272.34 60 C204.69 60.81, 136.86 59.31, 15 60 M15 60 C5.63 59.57, -0.1 54.28, 0 45 M15 60 C3.4 57.74, 1.2 56.5, 0 45 M0 45 C1.51 33.54, -0.87 23.71, 0 15 M0 45 C0.04 34.41, 0.71 24.25, 0 15 M0 15 C-1.88 5.73, 3.25 1.4, 15 0 M0 15 C-0.53 5.08, 3.68 0.35, 15 0" stroke="#1e1e1e" stroke-width="2" fill="none"></path></g><g transform="translate(450.8315562488026 321.5664990082928) rotate(0 98.00990295410156 12.500000000000007)"><text x="98.00990295410156" y="0" font-family="Virgil, Segoe UI Emoji" font-size="20px" fill="#1e1e1e" text-anchor="middle" style="white-space: pre;" direction="ltr" dominant-baseline="text-before-edge">Destination.Viewport</text></g><g stroke-linecap="round" transform="translate(393.3876924270419 10) rotate(0 197.68864446670034 191.61008561575795)"><path d="M32 0 C119.55 1.11, 207.15 -0.23, 363.38 0 M32 0 C122.5 0.92, 212.18 1.51, 363.38 0 M363.38 0 C384.88 -1.8, 394.29 10.95, 395.38 32 M363.38 0 C386.88 -2.05, 395.72 10.48, 395.38 32 M395.38 32 C392.27 157.89, 392.33 285.78, 395.38 351.22 M395.38 32 C394.42 115.28, 394.69 198.19, 395.38 351.22 M395.38 351.22 C397.25 371.75, 383.68 383.59, 363.38 383.22 M395.38 351.22 C396.33 374.8, 386.27 385.28, 363.38 383.22 M363.38 383.22 C253.75 381.47, 141.23 381.39, 32 383.22 M363.38 383.22 C256.64 382.29, 148.47 382.1, 32 383.22 M32 383.22 C11.07 384.55, -1.7 371.64, 0 351.22 M32 383.22 C11.3 383.6, 1.91 373.71, 0 351.22 M0 351.22 C1.27 257.77, 0.2 162.61, 0 32 M0 351.22 C0.39 283.38, 0.37 215.48, 0 32 M0 32 C0.67 9.74, 9.32 1.27, 32 0 M0 32 C0.35 12.82, 8.98 -1.04, 32 0" stroke="#1e1e1e" stroke-width="2" fill="none"></path></g><g stroke-linecap="round"><g transform="translate(523.7644350469093 399.24136724708677) rotate(0 -2.6511885333919736 61.09963629196582)"><path d="M0.07 -0.02 C-0.82 20.32, -4.35 101.81, -5.26 122.2 M-0.08 -0.17 C-1.01 20.18, -4.54 101.94, -5.37 122.37" stroke="#1e1e1e" stroke-width="2" fill="none"></path></g><g transform="translate(523.7644350469093 399.24136724708677) rotate(0 -2.6511885333919736 61.09963629196582)"><path d="M-14.43 93.77 C-11.12 104.29, -7.85 114.48, -5.37 122.37 M-14.43 93.77 C-11.68 102.62, -8.85 111.53, -5.37 122.37" stroke="#1e1e1e" stroke-width="2" fill="none"></path></g><g transform="translate(523.7644350469093 399.24136724708677) rotate(0 -2.6511885333919736 61.09963629196582)"><path d="M6.07 94.64 C1.86 104.85, -2.38 114.72, -5.37 122.37 M6.07 94.64 C2.45 103.19, -1.08 111.83, -5.37 122.37" stroke="#1e1e1e" stroke-width="2" fill="none"></path></g></g><mask></mask><g stroke-linecap="round" transform="translate(10 142.11668773914334) rotate(0 178.99684509442415 86.23619795357358)"><path d="M32 0 C103.56 0, 175.13 0, 325.99 0 M32 0 C140.76 0, 249.52 0, 325.99 0 M325.99 0 C347.33 0, 357.99 10.67, 357.99 32 M325.99 0 C347.33 0, 357.99 10.67, 357.99 32 M357.99 32 C357.99 74.29, 357.99 116.57, 357.99 140.47 M357.99 32 C357.99 59.7, 357.99 87.4, 357.99 140.47 M357.99 140.47 C357.99 161.81, 347.33 172.47, 325.99 172.47 M357.99 140.47 C357.99 161.81, 347.33 172.47, 325.99 172.47 M325.99 172.47 C214.76 172.47, 103.52 172.47, 32 172.47 M325.99 172.47 C244.77 172.47, 163.54 172.47, 32 172.47 M32 172.47 C10.67 172.47, 0 161.81, 0 140.47 M32 172.47 C10.67 172.47, 0 161.81, 0 140.47 M0 140.47 C0 116.42, 0 92.36, 0 32 M0 140.47 C0 100.9, 0 61.33, 0 32 M0 32 C0 10.67, 10.67 0, 32 0 M0 32 C0 10.67, 10.67 0, 32 0" stroke="#1e1e1e" stroke-width="2" fill="none"></path></g><g transform="translate(140.48898374553937 165.94511085789355) rotate(0 50.51995086669922 12.5)"><text x="0" y="0" font-family="Virgil, Segoe UI Emoji" font-size="20px" fill="#1e1e1e" text-anchor="start" style="white-space: pre;" direction="ltr" dominant-baseline="text-before-edge">ISimulator</text></g><g transform="translate(425.4307138535869 33.88232896729994) rotate(0 90.30992126464844 12.5)"><text x="0" y="0" font-family="Virgil, Segoe UI Emoji" font-size="20px" fill="#1e1e1e" text-anchor="start" style="white-space: pre;" direction="ltr" dominant-baseline="text-before-edge">IImageDestination</text></g><g stroke-linecap="round" transform="translate(403.3376876174045 70.47848856355077) rotate(0 140.55032040273397 30)"><path d="M15 0 C91.11 2.33, 165.48 1.73, 266.1 0 M15 0 C76.71 -2.28, 138.67 -1.21, 266.1 0 M266.1 0 C274.39 1.76, 282.86 6.8, 281.1 15 M266.1 0 C274.43 1.92, 282.33 6.11, 281.1 15 M281.1 15 C279.27 23.73, 281.04 34.54, 281.1 45 M281.1 15 C281.77 22.08, 280.18 29.4, 281.1 45 M281.1 45 C281.47 55.04, 277.64 61.47, 266.1 60 M281.1 45 C280.84 53.75, 275.25 58.3, 266.1 60 M266.1 60 C199.31 59.29, 134.92 60.04, 15 60 M266.1 60 C177.38 58.57, 89.93 58.96, 15 60 M15 60 C5.71 59.66, 0.47 56.99, 0 45 M15 60 C3.63 57.9, -0.26 53.65, 0 45 M0 45 C-1.45 39.24, -0.58 29.97, 0 15 M0 45 C0.78 37.88, -0.59 30.85, 0 15 M0 15 C1.93 6.39, 4.27 1.82, 15 0 M0 15 C-0.2 5.33, 4.57 1.97, 15 0" stroke="#1e1e1e" stroke-width="2" fill="none"></path></g><g transform="translate(445.1281050660368 87.97848856355077) rotate(0 98.75990295410156 12.5)"><text x="98.75990295410156" y="0" font-family="Virgil, Segoe UI Emoji" font-size="20px" fill="#1e1e1e" text-anchor="middle" style="white-space: pre;" direction="ltr" dominant-baseline="text-before-edge">Destination.VideoFile</text></g><g stroke-linecap="round" transform="translate(402.69667668377383 137.00991836158317) rotate(0 185.44927852004207 37.69904705380936)"><path d="M18.85 0 C145.76 -0.85, 273.87 -0.89, 352.05 0 M18.85 0 C142.81 -1.37, 266.73 -2.33, 352.05 0 M352.05 0 C366.23 0.42, 372.43 7.36, 370.9 18.85 M352.05 0 C363.07 1.65, 370.28 5.39, 370.9 18.85 M370.9 18.85 C370.89 26.84, 370.03 36.02, 370.9 56.55 M370.9 18.85 C371.35 28.55, 370.85 36.13, 370.9 56.55 M370.9 56.55 C371.91 69.88, 364.57 74.34, 352.05 75.4 M370.9 56.55 C369.43 68.76, 364.31 77.08, 352.05 75.4 M352.05 75.4 C263.48 75.86, 172.62 77.7, 18.85 75.4 M352.05 75.4 C240.26 76.56, 128.93 76.24, 18.85 75.4 M18.85 75.4 C7.86 76.16, 1.68 67.53, 0 56.55 M18.85 75.4 C7.49 73.36, -0.1 68.59, 0 56.55 M0 56.55 C1.34 47.92, 1.33 40.49, 0 18.85 M0 56.55 C-0.19 45.73, -0.93 33.18, 0 18.85 M0 18.85 C1.11 5.67, 6.9 1.53, 18.85 0 M0 18.85 C0.31 5.77, 6.28 2.06, 18.85 0" stroke="#1e1e1e" stroke-width="2" fill="none"></path></g><g transform="translate(417.9138859716038 165.41088483628442) rotate(0 87.59992218017578 12.5)"><text x="0" y="0" font-family="Virgil, Segoe UI Emoji" font-size="20px" fill="#1e1e1e" text-anchor="start" style="white-space: pre;" direction="ltr" dominant-baseline="text-before-edge">Destination.Image</text></g><g stroke-linecap="round" transform="translate(610.8261122994488 142.29143065160565) rotate(0 34.744417473601175 15)"><path d="M7.5 0 C22.57 0, 37.65 0, 61.99 0 M7.5 0 C22.05 0, 36.6 0, 61.99 0 M61.99 0 C66.99 0, 69.49 2.5, 69.49 7.5 M61.99 0 C66.99 0, 69.49 2.5, 69.49 7.5 M69.49 7.5 C69.49 12.58, 69.49 17.65, 69.49 22.5 M69.49 7.5 C69.49 13.35, 69.49 19.19, 69.49 22.5 M69.49 22.5 C69.49 27.5, 66.99 30, 61.99 30 M69.49 22.5 C69.49 27.5, 66.99 30, 61.99 30 M61.99 30 C46.75 30, 31.51 30, 7.5 30 M61.99 30 C40.83 30, 19.67 30, 7.5 30 M7.5 30 C2.5 30, 0 27.5, 0 22.5 M7.5 30 C2.5 30, 0 27.5, 0 22.5 M0 22.5 C0 16.7, 0 10.9, 0 7.5 M0 22.5 C0 18.1, 0 13.71, 0 7.5 M0 7.5 C0 2.5, 2.5 0, 7.5 0 M0 7.5 C0 2.5, 2.5 0, 7.5 0" stroke="#1e1e1e" stroke-width="2" fill="none"></path></g><g transform="translate(628.818546130472 147.29143065160565) rotate(0 16.751983642578125 10)"><text x="16.751983642578125" y="0" font-family="Virgil, Segoe UI Emoji" font-size="16px" fill="#1e1e1e" text-anchor="middle" style="white-space: pre;" direction="ltr" dominant-baseline="text-before-edge">PNG</text></g><g stroke-linecap="round" transform="translate(686.6321140600332 176.11841101033468) rotate(0 34.744417473601175 15)"><path d="M7.5 0 C28.58 0, 49.66 0, 61.99 0 M7.5 0 C26.89 0, 46.28 0, 61.99 0 M61.99 0 C66.99 0, 69.49 2.5, 69.49 7.5 M61.99 0 C66.99 0, 69.49 2.5, 69.49 7.5 M69.49 7.5 C69.49 10.65, 69.49 13.81, 69.49 22.5 M69.49 7.5 C69.49 10.94, 69.49 14.38, 69.49 22.5 M69.49 22.5 C69.49 27.5, 66.99 30, 61.99 30 M69.49 22.5 C69.49 27.5, 66.99 30, 61.99 30 M61.99 30 C42.16 30, 22.33 30, 7.5 30 M61.99 30 C41.16 30, 20.33 30, 7.5 30 M7.5 30 C2.5 30, 0 27.5, 0 22.5 M7.5 30 C2.5 30, 0 27.5, 0 22.5 M0 22.5 C0 17.48, 0 12.46, 0 7.5 M0 22.5 C0 19.26, 0 16.02, 0 7.5 M0 7.5 C0 2.5, 2.5 0, 7.5 0 M0 7.5 C0 2.5, 2.5 0, 7.5 0" stroke="#1e1e1e" stroke-width="2" fill="none"></path></g><g transform="translate(704.7045420927163 181.11841101033468) rotate(0 16.67198944091797 10)"><text x="16.67198944091797" y="0" font-family="Virgil, Segoe UI Emoji" font-size="16px" fill="#1e1e1e" text-anchor="middle" style="white-space: pre;" direction="ltr" dominant-baseline="text-before-edge">JPG</text></g><g stroke-linecap="round" transform="translate(610.826112299449 176.51323393617105) rotate(0 34.744417473601175 15)"><path d="M7.5 0 C22.92 0, 38.35 0, 61.99 0 M7.5 0 C20.93 0, 34.35 0, 61.99 0 M61.99 0 C66.99 0, 69.49 2.5, 69.49 7.5 M61.99 0 C66.99 0, 69.49 2.5, 69.49 7.5 M69.49 7.5 C69.49 11.79, 69.49 16.07, 69.49 22.5 M69.49 7.5 C69.49 12.63, 69.49 17.76, 69.49 22.5 M69.49 22.5 C69.49 27.5, 66.99 30, 61.99 30 M69.49 22.5 C69.49 27.5, 66.99 30, 61.99 30 M61.99 30 C43.01 30, 24.04 30, 7.5 30 M61.99 30 C50.25 30, 38.51 30, 7.5 30 M7.5 30 C2.5 30, 0 27.5, 0 22.5 M7.5 30 C2.5 30, 0 27.5, 0 22.5 M0 22.5 C0 16.69, 0 10.88, 0 7.5 M0 22.5 C0 17.62, 0 12.74, 0 7.5 M0 7.5 C0 2.5, 2.5 0, 7.5 0 M0 7.5 C0 2.5, 2.5 0, 7.5 0" stroke="#1e1e1e" stroke-width="2" fill="none"></path></g><g transform="translate(630.146541430765 181.51323393617105) rotate(0 15.423988342285156 10)"><text x="15.423988342285156" y="0" font-family="Virgil, Segoe UI Emoji" font-size="16px" fill="#1e1e1e" text-anchor="middle" style="white-space: pre;" direction="ltr" dominant-baseline="text-before-edge">EXA</text></g><g stroke-linecap="round" transform="translate(685.4476452825243 142.5584623142426) rotate(0 34.744417473601175 15)"><path d="M7.5 0 C25.44 0, 43.39 0, 61.99 0 M7.5 0 C21.47 0, 35.45 0, 61.99 0 M61.99 0 C66.99 0, 69.49 2.5, 69.49 7.5 M61.99 0 C66.99 0, 69.49 2.5, 69.49 7.5 M69.49 7.5 C69.49 12.56, 69.49 17.62, 69.49 22.5 M69.49 7.5 C69.49 11.17, 69.49 14.83, 69.49 22.5 M69.49 22.5 C69.49 27.5, 66.99 30, 61.99 30 M69.49 22.5 C69.49 27.5, 66.99 30, 61.99 30 M61.99 30 C46.09 30, 30.19 30, 7.5 30 M61.99 30 C50.05 30, 38.11 30, 7.5 30 M7.5 30 C2.5 30, 0 27.5, 0 22.5 M7.5 30 C2.5 30, 0 27.5, 0 22.5 M0 22.5 C0 18.06, 0 13.62, 0 7.5 M0 22.5 C0 18.75, 0 15.01, 0 7.5 M0 7.5 C0 2.5, 2.5 0, 7.5 0 M0 7.5 C0 2.5, 2.5 0, 7.5 0" stroke="#1e1e1e" stroke-width="2" fill="none"></path></g><g transform="translate(702.2000736203831 147.5584623142426) rotate(0 17.991989135742188 10)"><text x="17.991989135742188" y="0" font-family="Virgil, Segoe UI Emoji" font-size="16px" fill="#1e1e1e" text-anchor="middle" style="white-space: pre;" direction="ltr" dominant-baseline="text-before-edge">TGA</text></g><g stroke-linecap="round" transform="translate(402.4942440455029 221.08845991505376) rotate(0 185.44927852004207 37.69904705380936)"><path d="M18.85 0 C115.54 -2.16, 210.78 -1.63, 352.05 0 M18.85 0 C85.8 -0.91, 152.46 -0.44, 352.05 0 M352.05 0 C364.55 1.81, 372.38 5.02, 370.9 18.85 M352.05 0 C362.55 0.91, 369.44 4.42, 370.9 18.85 M370.9 18.85 C372.68 29.74, 369.9 42.96, 370.9 56.55 M370.9 18.85 C371.43 30.37, 370.66 43.65, 370.9 56.55 M370.9 56.55 C369.44 69.88, 363.26 77.34, 352.05 75.4 M370.9 56.55 C372.92 70.67, 362.59 77.65, 352.05 75.4 M352.05 75.4 C259.02 73.7, 167.43 73.88, 18.85 75.4 M352.05 75.4 C234.1 77.69, 114.88 77, 18.85 75.4 M18.85 75.4 C4.72 77.34, 0.69 68.28, 0 56.55 M18.85 75.4 C8.05 74.72, 1.36 69.23, 0 56.55 M0 56.55 C0.74 42.69, -1.55 28.21, 0 18.85 M0 56.55 C0.71 42.54, -0.06 26.69, 0 18.85 M0 18.85 C1.81 5.8, 8.19 0.32, 18.85 0 M0 18.85 C1.46 7.72, 4.12 0.06, 18.85 0" stroke="#1e1e1e" stroke-width="2" fill="none"></path></g><g transform="translate(413.76724574478794 233.21957008700758) rotate(0 72.24993896484375 25)"><text x="0" y="0" font-family="Virgil, Segoe UI Emoji" font-size="20px" fill="#1e1e1e" text-anchor="start" style="white-space: pre;" direction="ltr" dominant-baseline="text-before-edge">Destination.</text><text x="0" y="25" font-family="Virgil, Segoe UI Emoji" font-size="20px" fill="#1e1e1e" text-anchor="start" style="white-space: pre;" direction="ltr" dominant-baseline="text-before-edge">ImageSequence</text></g><g stroke-linecap="round" transform="translate(610.6236796611777 226.3699722050763) rotate(0 34.744417473601175 15)"><path d="M7.5 0 C18.94 0, 30.38 0, 61.99 0 M7.5 0 C22.67 0, 37.85 0, 61.99 0 M61.99 0 C66.99 0, 69.49 2.5, 69.49 7.5 M61.99 0 C66.99 0, 69.49 2.5, 69.49 7.5 M69.49 7.5 C69.49 11.13, 69.49 14.76, 69.49 22.5 M69.49 7.5 C69.49 11.36, 69.49 15.22, 69.49 22.5 M69.49 22.5 C69.49 27.5, 66.99 30, 61.99 30 M69.49 22.5 C69.49 27.5, 66.99 30, 61.99 30 M61.99 30 C49.4 30, 36.81 30, 7.5 30 M61.99 30 C43.14 30, 24.29 30, 7.5 30 M7.5 30 C2.5 30, 0 27.5, 0 22.5 M7.5 30 C2.5 30, 0 27.5, 0 22.5 M0 22.5 C0 18.04, 0 13.58, 0 7.5 M0 22.5 C0 16.89, 0 11.27, 0 7.5 M0 7.5 C0 2.5, 2.5 0, 7.5 0 M0 7.5 C0 2.5, 2.5 0, 7.5 0" stroke="#1e1e1e" stroke-width="2" fill="none"></path></g><g transform="translate(628.6161134922008 231.3699722050763) rotate(0 16.751983642578125 10)"><text x="16.751983642578125" y="0" font-family="Virgil, Segoe UI Emoji" font-size="16px" fill="#1e1e1e" text-anchor="middle" style="white-space: pre;" direction="ltr" dominant-baseline="text-before-edge">PNG</text></g><g stroke-linecap="round" transform="translate(686.4296814217626 260.1969525638053) rotate(0 34.744417473601175 15)"><path d="M7.5 0 C21.61 0, 35.72 0, 61.99 0 M7.5 0 C28.79 0, 50.08 0, 61.99 0 M61.99 0 C66.99 0, 69.49 2.5, 69.49 7.5 M61.99 0 C66.99 0, 69.49 2.5, 69.49 7.5 M69.49 7.5 C69.49 12.99, 69.49 18.47, 69.49 22.5 M69.49 7.5 C69.49 12.58, 69.49 17.65, 69.49 22.5 M69.49 22.5 C69.49 27.5, 66.99 30, 61.99 30 M69.49 22.5 C69.49 27.5, 66.99 30, 61.99 30 M61.99 30 C47.85 30, 33.71 30, 7.5 30 M61.99 30 C40.36 30, 18.73 30, 7.5 30 M7.5 30 C2.5 30, 0 27.5, 0 22.5 M7.5 30 C2.5 30, 0 27.5, 0 22.5 M0 22.5 C0 18.75, 0 15.01, 0 7.5 M0 22.5 C0 18.37, 0 14.23, 0 7.5 M0 7.5 C0 2.5, 2.5 0, 7.5 0 M0 7.5 C0 2.5, 2.5 0, 7.5 0" stroke="#1e1e1e" stroke-width="2" fill="none"></path></g><g transform="translate(704.5021094544459 265.1969525638053) rotate(0 16.67198944091797 10)"><text x="16.67198944091797" y="0" font-family="Virgil, Segoe UI Emoji" font-size="16px" fill="#1e1e1e" text-anchor="middle" style="white-space: pre;" direction="ltr" dominant-baseline="text-before-edge">JPG</text></g><g stroke-linecap="round" transform="translate(610.6236796611781 260.5917754896417) rotate(0 34.744417473601175 15)"><path d="M7.5 0 C25.28 0, 43.06 0, 61.99 0 M7.5 0 C26.01 0, 44.51 0, 61.99 0 M61.99 0 C66.99 0, 69.49 2.5, 69.49 7.5 M61.99 0 C66.99 0, 69.49 2.5, 69.49 7.5 M69.49 7.5 C69.49 11.28, 69.49 15.05, 69.49 22.5 M69.49 7.5 C69.49 13.01, 69.49 18.52, 69.49 22.5 M69.49 22.5 C69.49 27.5, 66.99 30, 61.99 30 M69.49 22.5 C69.49 27.5, 66.99 30, 61.99 30 M61.99 30 C48.74 30, 35.49 30, 7.5 30 M61.99 30 C47.25 30, 32.52 30, 7.5 30 M7.5 30 C2.5 30, 0 27.5, 0 22.5 M7.5 30 C2.5 30, 0 27.5, 0 22.5 M0 22.5 C0 18.38, 0 14.26, 0 7.5 M0 22.5 C0 17.06, 0 11.63, 0 7.5 M0 7.5 C0 2.5, 2.5 0, 7.5 0 M0 7.5 C0 2.5, 2.5 0, 7.5 0" stroke="#1e1e1e" stroke-width="2" fill="none"></path></g><g transform="translate(629.9441087924943 265.5917754896417) rotate(0 15.423988342285156 10)"><text x="15.423988342285156" y="0" font-family="Virgil, Segoe UI Emoji" font-size="16px" fill="#1e1e1e" text-anchor="middle" style="white-space: pre;" direction="ltr" dominant-baseline="text-before-edge">EXA</text></g><g stroke-linecap="round" transform="translate(685.2452126442533 226.6370038677132) rotate(0 34.744417473601175 15)"><path d="M7.5 0 C27.89 0, 48.27 0, 61.99 0 M7.5 0 C24.18 0, 40.85 0, 61.99 0 M61.99 0 C66.99 0, 69.49 2.5, 69.49 7.5 M61.99 0 C66.99 0, 69.49 2.5, 69.49 7.5 M69.49 7.5 C69.49 10.98, 69.49 14.47, 69.49 22.5 M69.49 7.5 C69.49 10.95, 69.49 14.39, 69.49 22.5 M69.49 22.5 C69.49 27.5, 66.99 30, 61.99 30 M69.49 22.5 C69.49 27.5, 66.99 30, 61.99 30 M61.99 30 C43.75 30, 25.51 30, 7.5 30 M61.99 30 C45.28 30, 28.58 30, 7.5 30 M7.5 30 C2.5 30, 0 27.5, 0 22.5 M7.5 30 C2.5 30, 0 27.5, 0 22.5 M0 22.5 C0 16.57, 0 10.65, 0 7.5 M0 22.5 C0 16.81, 0 11.12, 0 7.5 M0 7.5 C0 2.5, 2.5 0, 7.5 0 M0 7.5 C0 2.5, 2.5 0, 7.5 0" stroke="#1e1e1e" stroke-width="2" fill="none"></path></g><g transform="translate(701.9976409821124 231.6370038677132) rotate(0 17.991989135742188 10)"><text x="17.991989135742188" y="0" font-family="Virgil, Segoe UI Emoji" font-size="16px" fill="#1e1e1e" text-anchor="middle" style="white-space: pre;" direction="ltr" dominant-baseline="text-before-edge">TGA</text></g><g stroke-linecap="round"><g transform="translate(630.6325681940057 548.1198998519035) rotate(0 209.6685446118255 -181.50711413288303)"><path d="M0 0 C69.49 -32.61, 388.62 -135.18, 416.96 -195.68 C445.31 -256.18, 211.22 -335.13, 170.08 -363.01 M0 0 C69.49 -32.61, 388.62 -135.18, 416.96 -195.68 C445.31 -256.18, 211.22 -335.13, 170.08 -363.01" stroke="#1e1e1e" stroke-width="2" fill="none"></path></g><g transform="translate(630.6325681940057 548.1198998519035) rotate(0 209.6685446118255 -181.50711413288303)"><path d="M199.93 -360.02 C191.5 -360.87, 183.08 -361.71, 170.08 -363.01 M199.93 -360.02 C192.85 -360.73, 185.78 -361.44, 170.08 -363.01" stroke="#1e1e1e" stroke-width="2" fill="none"></path></g><g transform="translate(630.6325681940057 548.1198998519035) rotate(0 209.6685446118255 -181.50711413288303)"><path d="M191.02 -341.54 C185.11 -347.6, 179.2 -353.66, 170.08 -363.01 M191.02 -341.54 C186.06 -346.63, 181.09 -351.72, 170.08 -363.01" stroke="#1e1e1e" stroke-width="2" fill="none"></path></g></g><mask></mask></svg>